<mxfile host="drawio-plugin" agent="Mozilla/5.0 (Windows NT 10.0; Win64; x64) AppleWebKit/537.36 (KHTML, like Gecko) Chrome/122.0.0.0 Safari/537.36" modified="2025-05-02T22:20:27.507Z" version="22.1.22" etag="1pws1CvOifxvCxQsYtca" type="embed">
  <diagram name="Page-1" id="wWQFUGHdb_J_DPX5aShU">
    <mxGraphModel dx="2904" dy="3019" grid="1" gridSize="10" guides="1" tooltips="1" connect="1" arrows="1" fold="1" page="1" pageScale="1" pageWidth="850" pageHeight="1100" math="0" shadow="0">
      <root>
        <mxCell id="0" />
        <mxCell id="1" parent="0" />
        <mxCell id="fn003GXV_2hyAFAk2X-T-59" value="&lt;div&gt;&lt;pre style=&quot;font-family: &amp;quot;JetBrains Mono&amp;quot;, monospace;&quot;&gt;&lt;font style=&quot;&quot;&gt;Disjunction&lt;/font&gt;&lt;/pre&gt;&lt;/div&gt;" style="text;html=1;align=center;verticalAlign=middle;resizable=0;points=[];autosize=1;strokeColor=none;fillColor=none;labelBackgroundColor=none;fontSize=14;fontColor=#000000;" parent="1" vertex="1">
          <mxGeometry x="-500" y="-1190" width="110" height="60" as="geometry" />
        </mxCell>
        <mxCell id="fn003GXV_2hyAFAk2X-T-62" style="edgeStyle=orthogonalEdgeStyle;rounded=0;orthogonalLoop=1;jettySize=auto;html=1;exitX=0.5;exitY=1;exitDx=0;exitDy=0;entryX=0.5;entryY=0;entryDx=0;entryDy=0;labelBackgroundColor=none;fontSize=14;fontColor=#000000;" parent="1" source="fn003GXV_2hyAFAk2X-T-63" target="fn003GXV_2hyAFAk2X-T-64" edge="1">
          <mxGeometry relative="1" as="geometry" />
        </mxCell>
        <mxCell id="fn003GXV_2hyAFAk2X-T-63" value="&lt;div style=&quot;&quot;&gt;&lt;pre style=&quot;font-family: &amp;quot;JetBrains Mono&amp;quot;, monospace;&quot;&gt;LeftSide = &lt;span style=&quot;&quot;&gt;leftSide&lt;/span&gt;;&lt;/pre&gt;&lt;/div&gt;" style="rounded=0;whiteSpace=wrap;html=1;absoluteArcSize=1;arcSize=14;strokeWidth=2;labelBackgroundColor=none;fontSize=14;fontColor=#000000;" parent="1" vertex="1">
          <mxGeometry x="-520" y="-790" width="205" height="50" as="geometry" />
        </mxCell>
        <mxCell id="9" style="edgeStyle=orthogonalEdgeStyle;rounded=0;orthogonalLoop=1;jettySize=auto;html=1;exitX=0.5;exitY=1;exitDx=0;exitDy=0;entryX=0.5;entryY=0;entryDx=0;entryDy=0;" edge="1" parent="1" source="fn003GXV_2hyAFAk2X-T-64" target="8">
          <mxGeometry relative="1" as="geometry" />
        </mxCell>
        <mxCell id="fn003GXV_2hyAFAk2X-T-64" value="&lt;div style=&quot;&quot;&gt;&lt;pre style=&quot;font-family: &amp;quot;JetBrains Mono&amp;quot;, monospace;&quot;&gt;&lt;div&gt;&lt;pre style=&quot;font-family: &amp;quot;JetBrains Mono&amp;quot;, monospace;&quot;&gt;RightSide = &lt;span style=&quot;&quot;&gt;rightSide&lt;/span&gt;;&lt;/pre&gt;&lt;/div&gt;&lt;/pre&gt;&lt;/div&gt;" style="rounded=0;whiteSpace=wrap;html=1;absoluteArcSize=1;arcSize=14;strokeWidth=2;labelBackgroundColor=none;fontSize=14;fontColor=#000000;" parent="1" vertex="1">
          <mxGeometry x="-527.5" y="-700" width="220" height="50" as="geometry" />
        </mxCell>
        <mxCell id="fn003GXV_2hyAFAk2X-T-65" value="&lt;pre style=&quot;font-family: &amp;quot;JetBrains Mono&amp;quot;, monospace;&quot;&gt;input: IEvaluatable leftSide, IEvaluatable rightSide&lt;/pre&gt;" style="text;html=1;align=center;verticalAlign=middle;resizable=0;points=[];autosize=1;strokeColor=none;fillColor=none;labelBackgroundColor=none;fontSize=14;fontColor=#000000;" parent="1" vertex="1">
          <mxGeometry x="-475" y="-1140" width="420" height="60" as="geometry" />
        </mxCell>
        <mxCell id="fn003GXV_2hyAFAk2X-T-66" value="&lt;pre style=&quot;font-family: &amp;quot;JetBrains Mono&amp;quot;, monospace;&quot;&gt;output: Disjunction&lt;/pre&gt;" style="text;html=1;align=center;verticalAlign=middle;resizable=0;points=[];autosize=1;strokeColor=none;fillColor=none;labelBackgroundColor=none;fontSize=14;fontColor=#000000;" parent="1" vertex="1">
          <mxGeometry x="-492.5" y="-1090" width="170" height="60" as="geometry" />
        </mxCell>
        <mxCell id="fn003GXV_2hyAFAk2X-T-69" value="&lt;pre style=&quot;font-family: &amp;quot;JetBrains Mono&amp;quot;, monospace;&quot;&gt;Evaluate&lt;/pre&gt;" style="text;html=1;align=center;verticalAlign=middle;resizable=0;points=[];autosize=1;strokeColor=none;fillColor=none;labelBackgroundColor=none;fontSize=14;fontColor=#000000;" parent="1" vertex="1">
          <mxGeometry x="820" y="-1210" width="90" height="60" as="geometry" />
        </mxCell>
        <mxCell id="fn003GXV_2hyAFAk2X-T-73" value="&lt;pre style=&quot;font-family: &amp;quot;JetBrains Mono&amp;quot;, monospace;&quot;&gt;input: EvaluatableSource &lt;span style=&quot;white-space-collapse: collapse;&quot;&gt;variables&lt;/span&gt;&lt;/pre&gt;" style="text;html=1;align=center;verticalAlign=middle;resizable=0;points=[];autosize=1;strokeColor=none;fillColor=none;labelBackgroundColor=none;fontSize=14;fontColor=#000000;" parent="1" vertex="1">
          <mxGeometry x="830" y="-1160" width="290" height="60" as="geometry" />
        </mxCell>
        <mxCell id="fn003GXV_2hyAFAk2X-T-74" value="&lt;pre style=&quot;font-family: &amp;quot;JetBrains Mono&amp;quot;, monospace;&quot;&gt;output: bool value&lt;/pre&gt;" style="text;html=1;align=center;verticalAlign=middle;resizable=0;points=[];autosize=1;strokeColor=none;fillColor=none;labelBackgroundColor=none;fontSize=14;fontColor=#000000;" parent="1" vertex="1">
          <mxGeometry x="830" y="-1110" width="160" height="60" as="geometry" />
        </mxCell>
        <mxCell id="fn003GXV_2hyAFAk2X-T-77" value="&lt;pre style=&quot;font-family: &amp;quot;JetBrains Mono&amp;quot;, monospace;&quot;&gt;ToString&lt;/pre&gt;" style="text;html=1;align=center;verticalAlign=middle;resizable=0;points=[];autosize=1;strokeColor=none;fillColor=none;labelBackgroundColor=none;fontSize=14;fontColor=#000000;" parent="1" vertex="1">
          <mxGeometry x="-990" y="-420" width="90" height="60" as="geometry" />
        </mxCell>
        <mxCell id="ptTvRxcQIBMbxlfLoQFo-3" style="edgeStyle=orthogonalEdgeStyle;rounded=0;orthogonalLoop=1;jettySize=auto;html=1;exitX=0.5;exitY=1;exitDx=0;exitDy=0;entryX=0.5;entryY=0;entryDx=0;entryDy=0;labelBackgroundColor=none;fontSize=14;fontColor=#000000;" parent="1" source="fn003GXV_2hyAFAk2X-T-80" target="ptTvRxcQIBMbxlfLoQFo-1" edge="1">
          <mxGeometry relative="1" as="geometry" />
        </mxCell>
        <mxCell id="fn003GXV_2hyAFAk2X-T-80" value="&lt;div style=&quot;&quot;&gt;&lt;pre style=&quot;font-family: &amp;quot;JetBrains Mono&amp;quot;, monospace;&quot;&gt;&lt;pre style=&quot;font-family: &amp;quot;JetBrains Mono&amp;quot;, monospace;&quot;&gt;&lt;pre style=&quot;font-family: &amp;quot;JetBrains Mono&amp;quot;, monospace;&quot;&gt;&lt;div&gt;&lt;pre style=&quot;font-family: &amp;quot;JetBrains Mono&amp;quot;, monospace;&quot;&gt;&lt;span style=&quot;&quot;&gt;string &lt;/span&gt;result = &lt;span style=&quot;&quot;&gt;$&quot;(&lt;/span&gt;{LeftSide}&lt;span style=&quot;&quot;&gt;|&lt;/span&gt;{RightSide}&lt;span style=&quot;&quot;&gt;)&quot;&lt;/span&gt;;&lt;/pre&gt;&lt;/div&gt;&lt;/pre&gt;&lt;/pre&gt;&lt;/pre&gt;&lt;/div&gt;" style="rounded=0;whiteSpace=wrap;html=1;absoluteArcSize=1;arcSize=14;strokeWidth=2;labelBackgroundColor=none;fontSize=14;fontColor=#000000;" parent="1" vertex="1">
          <mxGeometry x="-655" y="-330" width="480" height="50" as="geometry" />
        </mxCell>
        <mxCell id="fn003GXV_2hyAFAk2X-T-81" value="&lt;pre style=&quot;font-family: &amp;quot;JetBrains Mono&amp;quot;, monospace;&quot;&gt;input: none&lt;/pre&gt;" style="text;html=1;align=center;verticalAlign=middle;resizable=0;points=[];autosize=1;strokeColor=none;fillColor=none;labelBackgroundColor=none;fontSize=14;fontColor=#000000;" parent="1" vertex="1">
          <mxGeometry x="-985" y="-370" width="110" height="60" as="geometry" />
        </mxCell>
        <mxCell id="fn003GXV_2hyAFAk2X-T-82" value="&lt;pre style=&quot;font-family: &amp;quot;JetBrains Mono&amp;quot;, monospace;&quot;&gt;output: string result&lt;/pre&gt;" style="text;html=1;align=center;verticalAlign=middle;resizable=0;points=[];autosize=1;strokeColor=none;fillColor=none;labelBackgroundColor=none;fontSize=14;fontColor=#000000;" parent="1" vertex="1">
          <mxGeometry x="-980" y="-320" width="190" height="60" as="geometry" />
        </mxCell>
        <mxCell id="ptTvRxcQIBMbxlfLoQFo-7" style="edgeStyle=orthogonalEdgeStyle;rounded=0;orthogonalLoop=1;jettySize=auto;html=1;exitX=0.5;exitY=1;exitDx=0;exitDy=0;entryX=0.5;entryY=0;entryDx=0;entryDy=0;labelBackgroundColor=none;fontSize=14;fontColor=#000000;" parent="1" source="Nz37mQ4cNux8dQht925G-1" target="ptTvRxcQIBMbxlfLoQFo-5" edge="1">
          <mxGeometry relative="1" as="geometry" />
        </mxCell>
        <mxCell id="Nz37mQ4cNux8dQht925G-1" value="&lt;pre style=&quot;font-family: &amp;quot;JetBrains Mono&amp;quot;, monospace;&quot;&gt;&lt;span style=&quot;&quot;&gt;bool &lt;/span&gt;&lt;span style=&quot;&quot;&gt;value &lt;/span&gt;= LeftSide.&lt;span style=&quot;&quot;&gt;Evaluate&lt;/span&gt;(&lt;span style=&quot;&quot;&gt;variables&lt;/span&gt;) || RightSide.&lt;span style=&quot;&quot;&gt;Evaluate&lt;/span&gt;(&lt;span style=&quot;&quot;&gt;variables&lt;/span&gt;);&lt;/pre&gt;" style="shape=process;whiteSpace=wrap;html=1;backgroundOutline=1;size=0.022988505747126436;labelBackgroundColor=none;fontSize=14;fontColor=#000000;" parent="1" vertex="1">
          <mxGeometry x="247.5" y="-785" width="775" height="40" as="geometry" />
        </mxCell>
        <mxCell id="12" style="edgeStyle=orthogonalEdgeStyle;rounded=0;orthogonalLoop=1;jettySize=auto;html=1;exitX=0.5;exitY=1;exitDx=0;exitDy=0;entryX=0.5;entryY=0;entryDx=0;entryDy=0;" edge="1" parent="1" source="ptTvRxcQIBMbxlfLoQFo-1" target="11">
          <mxGeometry relative="1" as="geometry" />
        </mxCell>
        <mxCell id="ptTvRxcQIBMbxlfLoQFo-1" value="&lt;div style=&quot;&quot;&gt;&lt;pre style=&quot;font-family: &amp;quot;JetBrains Mono&amp;quot;, monospace;&quot;&gt;&lt;span style=&quot;&quot;&gt;return &lt;/span&gt;&lt;span style=&quot;&quot;&gt;result&lt;/span&gt;;&lt;/pre&gt;&lt;/div&gt;" style="rounded=0;whiteSpace=wrap;html=1;labelBackgroundColor=none;fontSize=14;fontColor=#000000;" parent="1" vertex="1">
          <mxGeometry x="-475" y="-240" width="120" height="60" as="geometry" />
        </mxCell>
        <mxCell id="13" style="edgeStyle=orthogonalEdgeStyle;rounded=0;orthogonalLoop=1;jettySize=auto;html=1;exitX=0.5;exitY=1;exitDx=0;exitDy=0;entryX=0.5;entryY=0;entryDx=0;entryDy=0;" edge="1" parent="1" source="ptTvRxcQIBMbxlfLoQFo-5" target="10">
          <mxGeometry relative="1" as="geometry" />
        </mxCell>
        <mxCell id="ptTvRxcQIBMbxlfLoQFo-5" value="&lt;div style=&quot;&quot;&gt;&lt;pre style=&quot;font-family: &amp;quot;JetBrains Mono&amp;quot;, monospace;&quot;&gt;&lt;span style=&quot;&quot;&gt;return &lt;/span&gt;&lt;span style=&quot;&quot;&gt;value&lt;/span&gt;;&lt;/pre&gt;&lt;/div&gt;" style="rounded=0;whiteSpace=wrap;html=1;labelBackgroundColor=none;fontSize=14;fontColor=#000000;" parent="1" vertex="1">
          <mxGeometry x="575" y="-710" width="120" height="60" as="geometry" />
        </mxCell>
        <mxCell id="3" style="edgeStyle=orthogonalEdgeStyle;rounded=0;orthogonalLoop=1;jettySize=auto;html=1;exitX=0.5;exitY=1;exitDx=0;exitDy=0;entryX=0.5;entryY=0;entryDx=0;entryDy=0;" edge="1" parent="1" source="2" target="fn003GXV_2hyAFAk2X-T-63">
          <mxGeometry relative="1" as="geometry" />
        </mxCell>
        <mxCell id="2" value="&lt;font style=&quot;font-size: 18px;&quot;&gt;begin&lt;/font&gt;" style="ellipse;whiteSpace=wrap;html=1;" vertex="1" parent="1">
          <mxGeometry x="-478.75" y="-880" width="122.5" height="60" as="geometry" />
        </mxCell>
        <mxCell id="6" style="edgeStyle=orthogonalEdgeStyle;rounded=0;orthogonalLoop=1;jettySize=auto;html=1;exitX=0.5;exitY=1;exitDx=0;exitDy=0;" edge="1" parent="1" source="4" target="fn003GXV_2hyAFAk2X-T-80">
          <mxGeometry relative="1" as="geometry" />
        </mxCell>
        <mxCell id="4" value="&lt;font style=&quot;font-size: 18px;&quot;&gt;begin&lt;/font&gt;" style="ellipse;whiteSpace=wrap;html=1;" vertex="1" parent="1">
          <mxGeometry x="-475" y="-420" width="122.5" height="60" as="geometry" />
        </mxCell>
        <mxCell id="7" style="edgeStyle=orthogonalEdgeStyle;rounded=0;orthogonalLoop=1;jettySize=auto;html=1;exitX=0.5;exitY=1;exitDx=0;exitDy=0;entryX=0.5;entryY=0;entryDx=0;entryDy=0;" edge="1" parent="1" source="5" target="Nz37mQ4cNux8dQht925G-1">
          <mxGeometry relative="1" as="geometry" />
        </mxCell>
        <mxCell id="5" value="&lt;font style=&quot;font-size: 18px;&quot;&gt;begin&lt;/font&gt;" style="ellipse;whiteSpace=wrap;html=1;" vertex="1" parent="1">
          <mxGeometry x="573.75" y="-870" width="122.5" height="60" as="geometry" />
        </mxCell>
        <mxCell id="8" value="&lt;font style=&quot;font-size: 18px;&quot;&gt;end&lt;/font&gt;" style="ellipse;whiteSpace=wrap;html=1;" vertex="1" parent="1">
          <mxGeometry x="-478.75" y="-620" width="122.5" height="60" as="geometry" />
        </mxCell>
        <mxCell id="10" value="&lt;font style=&quot;font-size: 18px;&quot;&gt;end&lt;/font&gt;" style="ellipse;whiteSpace=wrap;html=1;" vertex="1" parent="1">
          <mxGeometry x="573.75" y="-620" width="122.5" height="60" as="geometry" />
        </mxCell>
        <mxCell id="11" value="&lt;font style=&quot;font-size: 18px;&quot;&gt;end&lt;/font&gt;" style="ellipse;whiteSpace=wrap;html=1;" vertex="1" parent="1">
          <mxGeometry x="-476.25" y="-150" width="122.5" height="60" as="geometry" />
        </mxCell>
      </root>
    </mxGraphModel>
  </diagram>
</mxfile>
